<svg width="222" height="65" viewBox="0 0 222 65" fill="none" xmlns="http://www.w3.org/2000/svg">
<path d="M156.11 64.9985H31.2895C22.9772 64.9985 15.7461 59.4138 13.6511 51.4741L0 0.0678711H196.32L173.883 53.2235C170.91 60.3558 163.881 64.9985 156.11 64.9985Z" fill="white"/>
<path d="M194.901 0.0678711C194.901 0.0678711 187.805 8.47857 181.79 29.0007C177.397 43.5344 171.991 64.9985 154.758 64.9985C159.286 64.9985 168.747 65.5368 179.087 46.1585C185.507 30.3464 192.265 9.15143 204.429 0.0678711C196.32 0.0678711 194.901 0.0678711 194.901 0.0678711Z" fill="#FFC107"/>
<path d="M222 0.0678711C222 0.0678711 201.996 6.19086 183.277 39.43C192.197 12.9867 194.36 8.00758 199.969 4.71058C205.578 1.48087 205.916 0.0678711 205.916 0.0678711H222V0.0678711Z" fill="#FFC107"/>
<path d="M213.012 0.0672856C213.012 0.0672856 196.86 5.78656 185.709 34.383C183.006 40.1022 175.908 60.5518 162.257 63.9161C162.257 63.9161 168.876 61.7179 172.95 54.447C179.399 44.4707 184.963 24.5312 187.804 18.6381C191.534 10.9027 197.063 2.48957 203.618 0C208.822 0.0672856 213.012 0.0672856 213.012 0.0672856Z" fill="#EF482C"/>
<path fill-rule="evenodd" clip-rule="evenodd" d="M33.7899 12.5151C35.3442 11.9096 37.2365 12.0441 38.5205 13.188C39.5342 13.9954 40.0072 15.2738 40.4127 16.4177C43.2511 23.4154 46.2922 30.2785 49.2657 37.209C52.1716 29.4038 55.1451 21.5987 58.2538 13.7936C58.4565 13.2553 58.7269 12.7843 59.2675 12.5151C60.2136 11.9768 61.4976 12.3133 62.1059 13.1207C62.5113 13.659 62.5113 14.3991 62.241 15.072C58.7944 24.2901 55.483 33.6428 51.9013 42.861C51.4958 43.9375 51.0903 45.0814 50.2794 45.8215C49.6036 46.4271 48.725 46.6962 47.8465 46.8308H46.6976C45.2109 46.6962 43.9269 45.687 43.3186 44.4085C41.8319 41.448 40.5479 38.4201 39.1963 35.3922C36.831 29.8748 34.4657 24.3574 32.3707 18.7727C31.9652 17.6288 31.357 16.4177 31.6273 15.2066C31.7625 13.9281 32.641 12.9188 33.7899 12.5151Z" fill="#E10714"/>
<path fill-rule="evenodd" clip-rule="evenodd" d="M89.4758 20.3202C89.4758 18.9072 90.8274 17.8979 92.1115 17.8979C93.1927 17.8306 94.3416 18.4362 94.8147 19.4455C97.2475 24.3573 99.6804 29.2019 102.046 34.1137C104.073 29.471 106.033 24.8283 107.993 20.1856C108.195 19.6473 108.398 19.109 108.804 18.7053C109.412 18.0325 110.358 17.8306 111.237 17.9652C112.521 18.0998 113.602 19.2436 113.602 20.522C113.602 26.5777 113.602 32.6335 113.602 38.6892C113.534 40.1022 112.183 41.246 110.764 41.1787C109.344 41.246 107.993 39.9676 107.993 38.5546C107.993 34.4502 107.993 30.413 107.993 26.3086C106.574 29.4037 105.222 32.4316 103.803 35.5267C103.262 36.6706 102.857 37.949 101.843 38.7564C100.829 39.4966 99.2749 39.2947 98.3288 38.42C97.9233 38.0163 97.7206 37.478 97.4503 37.007C95.558 33.4409 93.6658 29.8075 91.7736 26.2413C91.7736 30.9513 91.7736 35.594 91.7736 40.304C91.8411 41.5824 89.4758 41.5824 89.4758 40.304C89.4758 33.5755 89.4758 26.9142 89.4758 20.3202Z" fill="#E10714"/>
<path fill-rule="evenodd" clip-rule="evenodd" d="M150.973 18.4361C151.514 17.8979 152.325 17.8306 153.001 17.8306C153.677 17.8306 154.352 17.9651 154.825 18.4361C155.299 18.9071 155.434 19.58 155.434 20.2528C155.434 21.6658 155.434 23.0788 155.434 24.4918C156.515 24.5591 157.664 24.29 158.745 24.761C159.083 25.232 159.151 26.3086 158.407 26.4431C157.461 26.645 156.447 26.5104 155.434 26.5777C155.434 29.6056 155.434 32.6334 155.434 35.6613C155.434 36.3341 155.434 37.0743 155.636 37.7471C155.704 38.0163 155.907 38.2854 156.245 38.3527C156.65 38.3527 156.92 38.0163 157.191 37.8144C157.664 37.478 158.272 37.2088 158.813 37.4107C159.421 37.5453 159.826 38.0163 159.962 38.5545V39.4965C159.624 40.4385 158.61 40.775 157.799 40.9768C156.177 41.246 154.488 41.0441 153.136 40.1021C151.514 38.9583 150.433 37.0743 150.433 35.123C150.433 32.297 150.433 29.471 150.433 26.5777C149.825 26.5777 149.216 26.5777 148.608 26.4431C147.865 26.2413 147.797 25.232 148.203 24.761C148.878 24.4246 149.689 24.5591 150.433 24.4918C150.433 23.1461 150.433 21.7331 150.433 20.3874C150.365 19.7819 150.433 18.9744 150.973 18.4361Z" fill="#E10714"/>
<path fill-rule="evenodd" clip-rule="evenodd" d="M63.3222 19.7149C64.1332 19.5803 65.0117 19.5803 65.7551 19.8494C66.2957 20.0513 66.7688 20.5223 66.8364 21.0606C66.904 21.7334 66.904 22.5409 66.3633 23.0119C65.7551 23.5501 64.8766 23.5501 64.0656 23.5501C63.3898 23.5501 62.5789 23.4156 62.1058 22.81C61.7003 22.2717 61.7003 21.5316 61.8355 20.8587C62.0382 20.2531 62.6464 19.8494 63.3222 19.7149Z" fill="#E10714"/>
<path fill-rule="evenodd" clip-rule="evenodd" d="M63.2546 24.6936C64.1331 24.4917 65.2144 24.4917 66.0254 24.9627C66.7687 25.4337 66.9039 26.3757 66.9039 27.1831C66.9039 30.8838 66.9039 34.5845 66.9039 38.2853C66.9039 39.0254 66.8363 39.8328 66.3633 40.3711C65.8902 40.9094 65.2144 41.044 64.5386 41.044C63.8628 41.044 63.1194 40.9767 62.5112 40.573C61.9706 40.102 61.7678 39.4291 61.7678 38.7563C61.7678 34.7191 61.7678 30.682 61.7678 26.6448C61.8354 25.7701 62.376 24.8954 63.2546 24.6936Z" fill="#E10714"/>
<path fill-rule="evenodd" clip-rule="evenodd" d="M70.4858 25.2322C71.094 24.6939 71.905 24.6266 72.6484 24.6939C73.3242 24.6939 73.9324 25.0303 74.3379 25.5686C74.6758 25.9723 74.7434 26.5106 74.9461 26.9143C76.1625 25.434 78.1223 24.6939 80.0146 24.6939C81.9068 24.6266 83.8666 25.1649 85.1507 26.6452C86.0968 27.8563 86.2995 29.4039 86.2995 30.8842C86.2995 32.8355 86.2995 34.854 86.2995 36.8053C86.2995 37.8146 86.4347 38.8239 86.1644 39.8332C85.9616 40.5733 85.2182 41.0443 84.4749 41.1116C83.6639 41.1789 82.7178 41.2462 81.9744 40.7079C81.3662 40.2369 81.231 39.4967 81.1634 38.8239C81.1634 36.3343 81.1634 33.8447 81.1634 31.3552C81.1634 30.3459 81.0959 29.2693 80.6904 28.26C80.4876 27.7218 80.0146 27.318 79.4739 27.1835C78.663 26.9143 77.7844 26.9143 77.0411 27.1835C76.0274 27.5199 75.2164 28.3946 75.0137 29.4712C74.8109 30.3459 74.8785 31.2879 74.8109 32.2299C74.8109 34.3157 74.8109 36.4689 74.8109 38.5547C74.8109 39.2276 74.7434 39.9677 74.2703 40.506C73.7297 41.0443 72.9863 41.1789 72.2429 41.1789C71.5671 41.1789 70.8237 41.0443 70.3507 40.5733C69.8776 40.1023 69.7424 39.4295 69.7424 38.8239C69.7424 34.9213 69.7424 31.0187 69.7424 27.1835C69.81 26.4433 69.9452 25.7032 70.4858 25.2322Z" fill="#E10714"/>
<path fill-rule="evenodd" clip-rule="evenodd" d="M121.036 24.9628C123.469 24.5591 126.037 24.4918 128.402 25.2319C129.686 25.7029 130.97 26.3758 131.646 27.5869C132.321 28.7981 132.389 30.2111 132.389 31.5568C132.389 33.7772 132.457 36.0649 132.389 38.2854C132.389 38.8909 132.051 39.4965 131.646 39.9002C130.632 40.9095 128.74 40.7749 127.929 39.5638C127.658 39.1601 127.523 38.6891 127.321 38.2181C126.712 39.3619 125.766 40.3039 124.482 40.7076C123.063 41.1786 121.509 41.1786 120.09 40.8422C118.535 40.4385 117.048 39.3619 116.508 37.7471C116.102 36.5359 116.17 35.1229 116.778 33.9791C117.521 32.7679 118.738 31.8932 120.022 31.4222C122.32 30.5475 124.82 30.4129 127.185 30.4129C127.253 29.4036 127.05 28.3271 126.374 27.4524C125.563 26.3758 124.009 26.0394 122.725 26.4431C121.914 26.7795 121.306 27.5196 120.563 27.9906C119.752 28.5962 118.535 28.5962 117.724 27.9906C117.116 27.4524 117.319 26.3758 117.995 25.9721C119.008 25.5011 120.022 25.1647 121.036 24.9628ZM123.131 33.0371C121.576 33.9791 121.036 36.2668 121.914 37.8144C122.387 38.6218 123.333 39.0928 124.279 38.8909C125.428 38.7564 126.374 37.8816 126.915 36.8724C127.726 35.3921 127.456 33.6426 127.523 32.0278C125.969 31.9605 124.415 32.1624 123.131 33.0371Z" fill="#E10714"/>
<path fill-rule="evenodd" clip-rule="evenodd" d="M135.7 27.1163C135.7 25.9052 136.714 24.7613 137.931 24.694C138.674 24.6267 139.485 24.7613 139.958 25.3669C140.499 25.9052 140.499 26.7126 140.634 27.3854C141.377 26.5107 141.985 25.5014 143.067 25.0304C144.013 24.5594 145.297 24.4922 146.108 25.2323C146.919 25.9724 146.919 27.3182 146.378 28.1929C146.175 28.5293 145.837 28.8657 145.364 28.8657C144.486 28.933 143.742 28.462 142.931 28.462C142.188 28.462 141.647 29.0003 141.31 29.6059C140.701 30.5479 140.566 31.6917 140.499 32.8356C140.499 34.7869 140.499 36.6709 140.499 38.6221C140.499 39.295 140.296 39.9679 139.823 40.3716C138.944 41.3136 137.322 41.3136 136.444 40.5061C135.903 40.0351 135.633 39.3623 135.633 38.6221C135.7 34.7869 135.7 30.9516 135.7 27.1163Z" fill="#E10714"/>
</svg>
